<?xml version="1.0" standalone="no"?><!DOCTYPE svg PUBLIC "-//W3C//DTD SVG 1.1//EN" "http://www.w3.org/Graphics/SVG/1.1/DTD/svg11.dtd"><svg t="1730100953026" class="icon" viewBox="0 0 1024 1024" version="1.1" xmlns="http://www.w3.org/2000/svg" p-id="22527" xmlns:xlink="http://www.w3.org/1999/xlink" width="200" height="200"><path d="M544.3584 203.1616H340.1216a34.048 34.048 0 0 0-34.816 34.816c0 19.968 14.8992 34.9184 34.816 34.9184h204.288c19.9168 0 34.816-14.9504 34.816-34.8672a34.048 34.048 0 0 0-34.816-34.8672z m-331.264-9.984a47.3088 47.3088 0 1 0 0 94.6688c24.9344 0 47.3088-19.968 47.3088-47.36a45.824 45.824 0 0 0-47.3088-47.3088zM903.0656 51.2H120.9344A69.632 69.632 0 0 0 51.2 120.9344v782.1312A69.632 69.632 0 0 0 120.9344 972.8h782.1312A69.632 69.632 0 0 0 972.8 903.0656V120.9344A68.096 68.096 0 0 0 903.0656 51.2zM120.9344 120.9344h782.1312V347.648H120.9344V120.9344z m0 782.1312V419.84h782.1312v483.2256H120.9344z m702.464-699.904h-169.4208a34.048 34.048 0 0 0-34.8672 34.816c0 19.968 14.9504 34.9184 34.8672 34.9184h169.3696c19.968 0 34.8672-14.9504 34.8672-34.8672 0-19.968-17.408-34.8672-34.816-34.8672z" fill="#505766" p-id="22528"></path></svg>