<?xml version="1.0" standalone="no"?><!DOCTYPE svg PUBLIC "-//W3C//DTD SVG 1.1//EN" "http://www.w3.org/Graphics/SVG/1.1/DTD/svg11.dtd"><svg t="1730099883904" class="icon" viewBox="0 0 1784 1024" version="1.1" xmlns="http://www.w3.org/2000/svg" p-id="9384" xmlns:xlink="http://www.w3.org/1999/xlink" width="348.4375" height="200"><path d="M162.832 458.856l291.512 154.92-50.576-164.392c93.68-69.432 225.416 6.944 268.936 145.304 26.544 110.856-52.336 228.992-124.048 290.496 15.84-2.648 31.744-5.304 47.52-10.528 166.28-55.072 256.448-234.632 201.344-400.968-55.056-166.224-234.536-256.336-400.816-201.264-14.8 4.896-28.488 11.304-41.832 18.216l-44.136-143.672-147.904 311.888z" fill="#33AF3C" p-id="9385"></path><path d="M679.96 597.04C633.432 445.912 492.56 362.496 392.392 438.344l50.96 169.192 13.784 7.488-49.376-163.896c91.44-69.232 220.024 6.92 262.504 144.856 25.912 110.536-51.088 228.328-121.096 289.632 11.328-1.92 22.68-3.872 33.992-6.824 64.328-71.544 120.76-179.488 96.8-281.752z" fill="#305E35" p-id="9386"></path><path d="M796.64 473.632c-54.888-167.144-233.832-257.768-399.592-202.384-14.752 4.936-28.4 11.376-41.704 18.328l-44-144.472-7.104 15.12 42.152 138.392c13.304-6.944 26.952-13.392 41.704-18.32 165.768-55.376 344.704 35.24 399.6 202.384 38.288 116.6 6.144 239.616-72.976 322.208 85.624-82.496 121.632-210.336 81.92-331.256z" fill="#85F9A0" p-id="9387"></path></svg>