<?xml version="1.0" standalone="no"?><!DOCTYPE svg PUBLIC "-//W3C//DTD SVG 1.1//EN" "http://www.w3.org/Graphics/SVG/1.1/DTD/svg11.dtd"><svg t="1730100138375" class="icon" viewBox="0 0 1024 1024" version="1.1" xmlns="http://www.w3.org/2000/svg" p-id="12392" xmlns:xlink="http://www.w3.org/1999/xlink" width="200" height="200"><path d="M520.859759 50.094367c-93.428159 0-186.700492 30.363595-265.792761 82.898847l-0.756863-0.779124c-5.320307 3.80658-10.395747 7.924809-15.582491 11.931735-5.164482 3.739798-10.17314 7.702202-15.226318 11.642346-17.318825 14.402673-43.519669 1.780856-43.252541-20.813755l1.001732-91.625041C181.539906 19.886597 161.883707 0.27492 137.263373 0.007791 112.643039-0.437423 92.497105 18.261565 92.185455 41.746604L89.046696 308.98631c-0.289389 22.594611 17.942124 41.404902 41.204556 43.185758 0.934949 0.066782 1.847638 0.133564 2.782588 0.133564 0.289389 0 0.578778-0.066782 0.890428-0.066782 0.445214 0.022261 0.890428 0.222607 1.402424 0.222607h0.400693l244.711877-0.801385c22.127136-0.066782 42.584719-15.226319 46.124171-37.041805a44.543661 44.543661 0 0 0-43.630973-52.000996h-0.445214l-75.975769 0.289389c-24.264163 0.066782-35.483556-30.274552-17.274304-45.745738C356.84292 167.853471 438.829078 139.137167 520.859759 139.137167c213.524636 0 387.247141 173.744765 387.24714 387.269402 0 213.546897-173.700244 387.269401-387.24714 387.269401S133.568097 739.953466 133.568097 526.384308a44.5214 44.5214 0 0 0-89.042801 0c0 262.631741 213.6582 476.312202 476.334463 476.312202 262.631741 0 476.289941-213.680461 476.289941-476.312202 0-262.631741-213.6582-476.312202-476.289941-476.312202" fill="#4A4A4A" p-id="12393"></path></svg>