<?xml version="1.0" standalone="no"?><!DOCTYPE svg PUBLIC "-//W3C//DTD SVG 1.1//EN" "http://www.w3.org/Graphics/SVG/1.1/DTD/svg11.dtd"><svg t="1730100858343" class="icon" viewBox="0 0 1024 1024" version="1.1" xmlns="http://www.w3.org/2000/svg" p-id="19501" xmlns:xlink="http://www.w3.org/1999/xlink" width="200" height="200"><path d="M141.909333 702.549333c8.192 0 16.384 1.237333 24.533334 3.626667 8.362667 2.517333 15.957333 6.272 22.698666 11.306667 6.826667 5.12 12.458667 11.392 16.768 18.773333 4.565333 7.850667 6.826667 16.768 6.826667 26.624 0 10.666667-2.645333 20.309333-7.893333 28.714667a41.429333 41.429333 0 0 1-3.072 4.266666l-2.56 2.688 1.450666 1.024c1.493333 1.194667 2.901333 2.474667 4.266667 3.84l3.84 4.437334c7.082667 9.258667 10.624 20.309333 10.624 32.853333 0 11.008-2.176 20.992-6.613333 29.866667-4.352 8.704-10.24 16.042667-17.578667 21.973333a75.648 75.648 0 0 1-24.704 13.098667 92.672 92.672 0 0 1-28.330667 4.352c-11.221333 0-21.589333-1.621333-31.061333-4.949334a68.352 68.352 0 0 1-24.96-15.018666 66.816 66.816 0 0 1-16-24.149334 82.346667 82.346667 0 0 1-5.205333-31.744l0.170666-10.496h53.589334v-37.802666H68.906667l0.426666-11.093334c0.341333-10.368 2.261333-19.925333 5.674667-28.672a66.218667 66.218667 0 0 1 37.845333-38.272c8.832-3.498667 18.517333-5.248 29.056-5.248z m-12.544 122.965334h-8.874666l0.341333 8.405333c0.128 3.84 0.725333 7.466667 1.834667 10.88a23.04 23.04 0 0 0 3.968 7.765333 17.365333 17.365333 0 0 0 5.973333 4.693334 20.48 20.48 0 0 0 9.045333 1.706666 19.370667 19.370667 0 0 0 13.653334-4.821333c3.242667-2.944 4.864-6.912 4.864-12.672 0-4.736-0.768-7.765333-1.877334-9.301333a12.074667 12.074667 0 0 0-5.461333-4.224 31.701333 31.701333 0 0 0-10.069333-2.048 255.232 255.232 0 0 0-13.397334-0.384zM938.666667 768v85.333333H298.666667v-85.333333h640z m-796.501334-14.165333c-6.058667 0-9.856 1.664-12.416 4.949333a24.704 24.704 0 0 0-4.565333 16.213333v3.157334l5.12 0.426666 5.162667 0.256 5.632-0.213333a28.842667 28.842667 0 0 0 9.088-2.133333 13.184 13.184 0 0 0 5.290666-3.925334c0.853333-1.024 1.365333-2.773333 1.365334-5.589333 0-4.565333-1.194667-7.381333-3.669334-9.344a16.810667 16.810667 0 0 0-11.008-3.797333z m3.328-349.952c9.386667 0 18.346667 1.493333 26.88 4.437333 8.661333 2.986667 16.384 7.296 23.04 12.928 6.826667 5.802667 12.202667 12.885333 16.170667 21.248 4.010667 8.448 6.016 17.877333 6.016 28.117333 0 10.453333-1.706667 19.712-5.290667 27.648-3.413333 7.594667-7.893333 14.336-13.525333 20.266667-5.290667 5.589333-11.306667 10.666667-18.005333 15.189333l-18.432 12.245334c-5.888 3.84-11.605333 7.978667-17.152 12.373333l3.84-2.944-0.042667 0.042667-3.797333 2.901333 3.84-2.944 69.589333 0.042667v52.565333H65.706667V597.333333c0-11.648 1.706667-22.016 5.205333-31.018666 3.413333-8.746667 8.064-16.64 13.952-23.594667 5.674667-6.698667 12.288-12.885333 19.84-18.474667 7.04-5.205333 14.421333-10.453333 22.186667-15.786666l12.885333-8.576c3.882667-2.474667 7.424-5.205333 10.624-8.149334a39.082667 39.082667 0 0 0 7.253333-9.045333 17.92 17.92 0 0 0 2.261334-9.258667c0-5.973333-1.493333-9.941333-4.266667-12.672a16.085333 16.085333 0 0 0-11.946667-4.309333 13.013333 13.013333 0 0 0-7.466666 1.877333 17.066667 17.066667 0 0 0-5.461334 6.058667 34.218667 34.218667 0 0 0-3.626666 10.154667 65.536 65.536 0 0 0-1.194667 12.458666v10.666667H70.144l-0.341333-10.325333a96.597333 96.597333 0 0 1 4.053333-32.042667c3.157333-10.112 7.893333-19.029333 14.293333-26.709333 6.528-7.850667 14.72-13.952 24.490667-18.304 9.685333-4.266667 20.693333-6.4 32.853333-6.4zM768 469.333333v85.333334H298.666667v-85.333334h469.333333zM182.016 108.8v200.533333H124.330667V193.109333H79.274667V144.085333l10.965333 0.298667c5.546667 0.170667 10.88-0.256 16.042667-1.237333a37.12 37.12 0 0 0 12.373333-4.522667 28.288 28.288 0 0 0 8.661333-8.106667 29.098667 29.098667 0 0 0 4.565334-12.629333l1.365333-9.088h48.768zM938.666667 170.666667v85.333333H298.666667V170.666667h640z" fill="#313238" p-id="19502"></path></svg>