<?xml version="1.0" standalone="no"?><!DOCTYPE svg PUBLIC "-//W3C//DTD SVG 1.1//EN" "http://www.w3.org/Graphics/SVG/1.1/DTD/svg11.dtd"><svg t="1730103146305" class="icon" viewBox="0 0 1024 1024" version="1.1" xmlns="http://www.w3.org/2000/svg" p-id="24720" xmlns:xlink="http://www.w3.org/1999/xlink" width="200" height="200"><path d="M541.226667 177.066667h-212.48c-9.6-0.213333-18.986667 3.84-25.813334 11.306666-6.826667 7.466667-10.666667 17.706667-10.453333 28.373334 0 22.826667 15.573333 39.68 36.266667 39.68h212.48c20.693333 0 36.266667-17.066667 36.266666-39.68 0.213333-10.666667-3.413333-20.906667-10.24-28.373334a34.773333 34.773333 0 0 0-26.026666-11.306666zM211.2 165.76c-17.493333 0-33.92 10.24-42.666667 26.88-8.746667 16.64-8.746667 37.12 0 53.973333 8.746667 16.64 24.96 26.88 42.666667 26.88 26.026667 0 49.28-22.826667 49.28-53.973333 0.426667-14.506667-4.693333-28.373333-13.866667-38.613333-9.6-10.24-22.4-15.573333-35.413333-15.146667zM819.626667 177.066667h-176.213334c-9.6-0.213333-18.986667 3.84-25.813333 11.306666-6.826667 7.466667-10.666667 17.706667-10.453333 28.373334 0 22.826667 15.573333 39.68 36.266666 39.68h176.213334c20.693333 0 36.266667-17.066667 36.266666-39.68s-18.133333-39.68-36.266666-39.68z" p-id="24721"></path><path d="M1000.32 380.373333H23.68v107.733334h976.64v-107.733334z" p-id="24722"></path><path d="M938.666667 85.333333v853.333334H85.333333V85.333333h853.333334m85.333333-85.333333H0v1024h1024V0z" p-id="24723"></path></svg>