<?xml version="1.0" standalone="no"?><!DOCTYPE svg PUBLIC "-//W3C//DTD SVG 1.1//EN" "http://www.w3.org/Graphics/SVG/1.1/DTD/svg11.dtd"><svg t="1730100933417" class="icon" viewBox="0 0 1486 1024" version="1.1" xmlns="http://www.w3.org/2000/svg" p-id="21502" xmlns:xlink="http://www.w3.org/1999/xlink" width="290.234375" height="200"><path d="M1420.387097 1024H66.064516a66.064516 66.064516 0 0 1-66.064516-66.064516V66.064516a66.064516 66.064516 0 0 1 66.064516-66.064516h1354.322581a66.064516 66.064516 0 0 1 66.064516 66.064516v891.870968a66.064516 66.064516 0 0 1-66.064516 66.064516zM1387.354839 165.16129a66.064516 66.064516 0 0 0-66.064516-66.064516H165.16129a66.064516 66.064516 0 0 0-66.064516 66.064516v99.096775h1288.258065V165.16129z m0 198.193549H99.096774v495.483871a66.064516 66.064516 0 0 0 66.064516 66.064516h1156.129033a66.064516 66.064516 0 0 0 66.064516-66.064516V363.354839zM944.689548 897.849806l-109.997419-107.024516-14.864516 11.891613-14.864516-11.891613 41.620645-44.593548-68.376774-68.376774-83.241291 83.24129c17.143742 187.358968-151.618065 124.861935-151.618064 124.861936l44.593548-47.566452-2.972903-35.674839-32.701935 2.972903-44.593549 41.620646c-59.821419-182.437161 124.861935-148.645161 124.861936-148.645162l83.24129-86.214193-121.889032-115.943226-11.891613 11.891613-77.295484-77.295484 41.620645-38.647742 77.295484 74.322581-14.864516 14.864516 124.861935 115.943226 83.241291-80.268387c-28.738065-181.578323 151.618065-124.861935 151.618064-124.861936l-47.566451 44.593548v32.701936l38.647742 2.972903 44.593548-44.593548c35.740903 193.469935-127.834839 148.645161-127.834839 148.645161l-5.945806 5.945807-80.268387 77.295483 71.349677 74.322581 41.620645-41.620645 14.864516 14.864516-11.891613 11.891613 107.024517 107.024516c29.629935 105.604129-68.376774 71.349677-68.376775 71.349677zM181.677419 132.129032a49.548387 49.548387 0 1 1-0.033032 99.129807A49.548387 49.548387 0 0 1 181.677419 132.129032z m165.161291 0a49.548387 49.548387 0 1 1-0.033033 99.129807A49.548387 49.548387 0 0 1 346.83871 132.129032z m165.16129 0a49.548387 49.548387 0 1 1-0.033032 99.129807A49.548387 49.548387 0 0 1 512 132.129032z" fill="#0B5DCD" p-id="21503"></path></svg>